<svg xmlns="http://www.w3.org/2000/svg" width="896" height="970" viewBox="0 0 896 970" version="1.1"><path d="M 442.885 7.860 C 441.573 8.883, 434.425 13.010, 427 17.032 C 419.575 21.053, 408.325 27.567, 402 31.507 C 395.675 35.447, 385.325 41.506, 379 44.971 C 368.780 50.570, 349.809 61.610, 335.500 70.286 C 326.487 75.751, 314.733 82.540, 300.500 90.503 C 292.800 94.811, 282.450 100.889, 277.500 104.011 C 255.899 117.636, 232.833 131.758, 219.685 139.410 C 211.883 143.950, 200.234 151.003, 193.798 155.083 C 187.362 159.162, 172.737 167.857, 161.298 174.404 C 149.859 180.951, 131.950 191.360, 121.500 197.535 C 111.050 203.710, 94.850 213.163, 85.500 218.542 C 76.150 223.920, 66.250 229.752, 63.500 231.500 C 54.199 237.414, 34.529 248.858, 29.664 251.186 L 24.827 253.500 24.944 469.480 C 25.008 588.269, 25.434 685.834, 25.891 686.291 C 26.347 686.747, 30.946 689.041, 36.110 691.389 C 41.275 693.737, 49.775 698.268, 55 701.458 C 60.225 704.648, 70.800 710.956, 78.500 715.475 C 86.200 719.994, 99.025 727.539, 107 732.242 C 114.975 736.945, 125.637 743.202, 130.694 746.146 C 148.568 756.555, 164.573 766.352, 170.500 770.512 C 179.509 776.836, 201.905 790.424, 210.188 794.592 C 214.210 796.616, 219.975 799.951, 223.001 802.004 C 226.027 804.057, 233.120 808.293, 238.765 811.418 C 244.410 814.544, 254.995 820.845, 262.288 825.421 C 269.582 829.998, 281.095 836.734, 287.873 840.391 C 294.651 844.048, 302.065 848.304, 304.348 849.850 C 321.209 861.265, 377.586 891.890, 378.933 890.366 C 379.355 889.890, 380.455 887.545, 381.379 885.155 C 382.303 882.766, 385.961 876.531, 389.508 871.300 C 396.498 860.992, 396.530 860.724, 391.336 855.825 C 384.929 849.781, 356.755 829.710, 346.500 823.884 C 324.712 811.508, 306.343 800.574, 298 795.017 C 293.325 791.902, 283.200 785.608, 275.500 781.029 C 267.800 776.450, 258.800 771.012, 255.500 768.944 C 245.424 762.630, 220.883 748.473, 214 745.005 C 210.425 743.203, 203.853 739.329, 199.395 736.396 C 194.937 733.464, 185.262 727.846, 177.895 723.913 C 170.528 719.980, 159.325 713.296, 153 709.058 C 146.675 704.821, 133.625 696.707, 124 691.028 C 114.375 685.348, 100.045 676.744, 92.155 671.907 C 84.264 667.070, 75.471 662.143, 72.614 660.959 L 67.419 658.805 68.222 650.653 C 68.664 646.169, 69.437 615.275, 69.941 582 C 70.444 548.725, 71.148 520.556, 71.505 519.403 C 71.976 517.878, 72.772 517.425, 74.424 517.741 C 76.990 518.231, 82.107 512.934, 86.700 505.031 C 90.787 497.999, 97.825 487.346, 104.716 477.758 C 108.172 472.950, 111 468.512, 111 467.897 C 111 467.281, 109.263 464.690, 107.140 462.139 C 105.017 459.587, 99.174 451.515, 94.155 444.200 C 83.563 428.763, 78.998 423.043, 77.250 423.018 C 76.299 423.004, 75.984 427.242, 75.933 440.750 C 75.869 457.483, 74.077 482.257, 72.840 483.493 C 71.949 484.385, 71.075 451.855, 70.007 378 C 69.462 340.325, 68.832 302.490, 68.608 293.923 L 68.200 278.346 76.492 274.234 C 81.053 271.972, 93.946 264.387, 105.142 257.379 C 116.339 250.371, 131.575 241.404, 139 237.453 C 152.675 230.175, 166.336 222.319, 184.500 211.287 C 190 207.947, 201.788 200.913, 210.696 195.657 C 219.604 190.401, 235.129 180.963, 245.196 174.684 C 255.263 168.404, 267.550 161.105, 272.500 158.463 C 282.760 152.987, 325.722 127.507, 334 121.989 C 337.025 119.972, 342.875 116.578, 347 114.445 C 351.125 112.313, 358.550 108.128, 363.500 105.145 C 368.450 102.161, 378.125 96.351, 385 92.234 C 391.875 88.116, 401.100 82.406, 405.500 79.545 C 409.900 76.684, 418.675 71.519, 425 68.066 C 431.325 64.613, 439.171 59.812, 442.436 57.396 C 447.481 53.662, 448.626 53.190, 450.068 54.251 C 457.706 59.874, 462.535 62.839, 476.500 70.483 C 485.300 75.300, 500.600 84.310, 510.500 90.506 C 520.400 96.701, 539.075 107.956, 552 115.517 C 564.925 123.078, 580.675 132.419, 587 136.276 C 593.325 140.133, 604.350 146.739, 611.500 150.955 C 618.650 155.171, 628.100 160.886, 632.500 163.654 C 636.900 166.422, 648.600 173.334, 658.500 179.013 C 675.136 188.556, 695.273 200.562, 717.500 214.190 C 727.526 220.338, 747.506 231.655, 759.069 237.737 C 763.233 239.927, 772.008 245.306, 778.569 249.690 C 791.936 258.620, 799.469 263.056, 815.500 271.439 C 821.550 274.603, 827.197 277.936, 828.050 278.846 C 829.434 280.324, 829.518 287.963, 828.830 350.500 C 828.406 389, 827.656 422.750, 827.163 425.500 C 826.671 428.250, 826.207 429.739, 826.134 428.809 C 825.923 426.141, 824.140 425.683, 821.206 427.543 C 816.029 430.826, 812.737 434.560, 806.260 444.500 C 802.676 450, 797.552 457.127, 794.872 460.337 C 792.192 463.548, 790 467.072, 790 468.168 C 790 471.131, 800.383 490.877, 808.002 502.404 C 814.613 512.406, 822.641 521, 825.372 521 C 826.432 521, 826.934 523.073, 827.368 529.250 C 828.363 543.398, 829.301 638.153, 828.546 648.224 L 827.829 657.794 821.664 660.028 C 818.274 661.257, 810.100 665.724, 803.500 669.954 C 796.900 674.185, 787.450 680.050, 782.500 682.986 C 777.550 685.923, 763.877 694.803, 752.116 702.720 C 740.354 710.637, 726.404 719.270, 721.116 721.905 C 711.244 726.823, 704.371 731.037, 693 739.141 C 683.873 745.646, 656.163 762.449, 648.720 765.992 C 645.299 767.620, 630.933 776.276, 616.796 785.227 C 602.659 794.177, 587.809 803.296, 583.796 805.491 C 579.783 807.686, 573.575 811.091, 570 813.058 C 561.356 817.813, 533.148 835.700, 514.380 848.327 C 506.064 853.922, 498.467 858.966, 497.498 859.535 C 495.925 860.458, 496.627 861.801, 504.036 872.035 C 508.602 878.341, 513.475 885.686, 514.866 888.357 C 516.257 891.029, 517.929 893.419, 518.581 893.669 C 519.233 893.920, 522.726 892.184, 526.343 889.812 C 529.959 887.441, 541.935 880.550, 552.955 874.500 C 563.975 868.450, 580.081 858.870, 588.746 853.212 C 597.411 847.554, 609.450 840.150, 615.500 836.759 C 628.955 829.217, 664.120 808.266, 673 802.500 C 676.575 800.179, 683.775 795.891, 689 792.970 C 694.225 790.050, 704.125 784.210, 711 779.993 C 717.875 775.775, 726.650 770.420, 730.500 768.092 C 734.350 765.764, 742.450 760.730, 748.500 756.907 C 754.550 753.083, 765.575 746.282, 773 741.794 C 780.425 737.307, 793.510 729.264, 802.077 723.922 C 824.956 709.656, 857.051 692.479, 864.692 690.411 C 868.270 689.442, 871.357 688.166, 871.552 687.575 C 872.206 685.593, 872.806 349.078, 872.240 301.680 L 871.680 254.859 862.590 250.300 C 857.591 247.792, 848.550 242.490, 842.500 238.517 C 836.450 234.543, 824.300 227.124, 815.500 222.030 C 797.589 211.662, 782.884 202.966, 769.500 194.829 C 754.532 185.727, 734.059 173.644, 724 167.974 C 712.106 161.269, 686.963 146.380, 672.500 137.477 C 661.522 130.719, 648.623 123.008, 642 119.243 C 640.075 118.149, 633.524 114.110, 627.442 110.266 C 621.360 106.423, 608.760 98.876, 599.442 93.495 C 580.002 82.270, 555.452 67.716, 539.500 57.962 C 533.450 54.262, 521.729 47.407, 513.453 42.729 C 505.177 38.050, 495.277 32.204, 491.453 29.738 C 487.629 27.271, 481.125 23.561, 477 21.493 C 472.875 19.424, 467.152 16.232, 464.283 14.400 C 456.906 9.687, 449.393 6, 447.168 6 C 446.124 6, 444.197 6.837, 442.885 7.860 M 443.964 89.543 C 443.239 90.417, 441.263 91.830, 439.573 92.683 C 437.883 93.536, 432 97.254, 426.500 100.944 C 421 104.635, 411.550 110.247, 405.500 113.416 C 399.450 116.585, 393.106 120.234, 391.402 121.524 C 389.698 122.814, 386.126 125.086, 383.464 126.572 C 373.630 132.062, 364.149 140.128, 360.150 146.405 C 354.141 155.838, 350.448 162.773, 346.704 171.654 C 344.813 176.139, 341.283 183.114, 338.860 187.154 C 330.948 200.345, 330.453 202.812, 334.775 207.500 C 343.474 216.937, 349.117 226.290, 369.162 264.500 C 376.040 277.610, 382.813 287.676, 384.497 287.292 C 384.999 287.177, 385.973 284.322, 386.661 280.948 C 388.595 271.468, 391.434 266.740, 400.071 258.615 C 404.432 254.512, 408 250.484, 408 249.663 C 408 248.842, 405.009 242.394, 401.353 235.335 L 394.706 222.500 384.603 222.465 C 372.562 222.423, 370.351 221.352, 366.548 213.720 C 363.653 207.911, 363.393 205.067, 365.405 201.200 C 370.447 191.511, 385.881 186.951, 395.700 192.250 C 400.495 194.838, 417.524 210.122, 423.831 217.500 C 426.182 220.250, 429.491 225.306, 431.183 228.736 C 432.876 232.165, 434.764 235.337, 435.380 235.784 C 435.996 236.230, 441.896 236.349, 448.490 236.048 L 460.481 235.500 461.901 232.530 C 466.196 223.543, 487.483 199.030, 496 193.263 C 504.595 187.443, 514.093 188.248, 521.589 195.430 C 525.878 199.540, 526 199.829, 526 205.878 C 526 212.585, 524.441 216.715, 520.199 221.250 C 517.854 223.756, 516.988 224, 510.448 224 C 504.700 224, 502.745 224.413, 500.635 226.073 C 499.186 227.212, 498 228.927, 498 229.882 C 498 230.838, 495.965 234.004, 493.477 236.918 C 487.926 243.422, 486.731 245.576, 487.438 247.805 C 487.740 248.755, 491.405 252.386, 495.582 255.872 C 504.318 263.162, 507.871 268.244, 511.082 278.038 C 512.338 281.867, 513.908 285, 514.572 285 C 515.708 285, 517.879 281.036, 522.066 271.323 C 523.056 269.026, 525.482 264.797, 527.458 261.925 C 536.229 249.173, 553.009 208.995, 552.990 200.789 C 552.982 197.603, 551.704 194.057, 548.019 187 C 545.290 181.775, 538.937 169.400, 533.899 159.500 C 523.182 138.438, 519.902 133.103, 513.915 127 C 506.718 119.665, 458.791 91.988, 447.391 88.584 C 446.055 88.185, 444.800 88.537, 443.964 89.543 M 565.765 155.569 C 564.531 156.802, 575.495 180.506, 578.422 182.936 C 581.847 185.778, 599.041 180.872, 598.971 177.073 C 598.954 176.162, 595.691 173.700, 591.221 171.225 C 586.974 168.874, 579.759 164.261, 575.186 160.975 C 566.187 154.508, 566.592 154.741, 565.765 155.569 M 312.416 170.100 C 296.876 180.868, 294.810 186.935, 306.665 186.986 C 309.180 186.997, 310.659 186.058, 313.868 182.412 C 318.104 177.601, 322 170.544, 322 167.684 C 322 164.909, 318.708 165.739, 312.416 170.100 M 615 198.629 C 611.975 200.077, 605.233 202.973, 600.019 205.065 C 594.804 207.157, 589.119 210.001, 587.385 211.384 C 582.865 214.991, 573.637 231.416, 562.038 256.500 C 559.241 262.550, 556.476 268.341, 555.894 269.368 C 552.699 275.008, 562.252 271.718, 581.454 260.564 C 595.595 252.350, 624.477 242.460, 644.500 238.975 C 656.184 236.941, 663.260 234.929, 668.320 232.203 C 674.618 228.810, 675.793 226.667, 672.776 224.081 C 665.371 217.731, 647.583 205.724, 639.566 201.663 C 627.579 195.592, 622.625 194.981, 615 198.629 M 265.497 200.005 C 264.526 201.576, 253.735 208.679, 243.595 214.421 C 232.510 220.698, 221 229.699, 221 232.089 C 221 233.880, 221.756 234.052, 243 237.115 C 247.125 237.710, 253.875 238.881, 258 239.717 C 262.125 240.553, 267.393 241.616, 269.706 242.080 C 281.812 244.507, 304.090 253.775, 319.789 262.915 C 331.488 269.727, 334 270.549, 334 267.568 C 334 265.255, 321.355 240.723, 316.849 234.295 C 314.457 230.882, 309.575 223.803, 306 218.563 C 298.345 207.343, 296.674 206.296, 279.482 201.954 C 266.291 198.622, 266.347 198.630, 265.497 200.005 M 171.500 256.044 C 166.254 256.877, 155.099 258.925, 143.804 261.129 C 138.018 262.258, 137.023 262.772, 136.486 264.912 C 136.144 266.273, 133.476 270.788, 130.556 274.944 C 127.636 279.100, 123.443 286.100, 121.237 290.500 C 119.032 294.900, 115.219 301.200, 112.764 304.500 C 110.308 307.800, 106.577 313.650, 104.472 317.500 C 102.367 321.350, 99.262 326.525, 97.572 329 L 94.500 333.500 94.380 357.135 C 94.314 370.134, 93.967 381.245, 93.608 381.825 C 93.249 382.405, 94.240 384.370, 95.809 386.190 C 100.789 391.966, 108.815 402.670, 112.297 408.178 C 114.147 411.105, 119.644 419.767, 124.511 427.426 C 129.379 435.085, 134.814 444.693, 136.589 448.777 L 139.817 456.202 164.158 455.874 C 199.526 455.399, 204.196 455.426, 217.828 456.195 L 230.156 456.891 231.828 453.846 C 232.748 452.172, 235.922 446.684, 238.883 441.651 C 246.909 428.005, 255 412.818, 255 411.396 C 255 410.664, 252.606 409.682, 249.250 409.037 C 238.422 406.955, 235.213 406.023, 227.111 402.606 C 200.969 391.581, 174.792 363.359, 168.511 339.427 C 166.288 330.957, 164.806 315.512, 165.544 308.500 C 167.356 291.267, 175.629 276.168, 189.185 265.353 C 192.993 262.314, 195.938 259.304, 195.730 258.664 C 194.712 255.545, 182.770 254.253, 171.500 256.044 M 714.250 259.746 C 706.256 259.999, 704 260.380, 704 261.478 C 704 262.253, 704.826 263.475, 705.835 264.193 C 708.072 265.787, 715.546 275.695, 719.645 282.500 C 730.013 299.716, 731.840 326.626, 723.823 344.047 C 719.096 354.318, 704.164 375.973, 697.193 382.665 C 685.926 393.482, 666.814 403.903, 651.154 407.768 C 647.664 408.630, 644.594 409.894, 644.332 410.577 C 643.719 412.175, 645.845 416.247, 653.430 428 C 656.802 433.225, 662.135 441.835, 665.283 447.134 C 668.430 452.433, 671.791 456.967, 672.752 457.210 C 673.714 457.453, 677.875 457.308, 682 456.888 C 686.125 456.467, 706.004 456.096, 726.177 456.062 L 762.853 456 770.177 442.277 C 774.204 434.729, 780.236 424.492, 783.580 419.527 C 797.572 398.753, 801.341 393.375, 804.160 390.165 C 805.915 388.166, 806.889 386.154, 806.541 385.246 C 804.735 380.540, 804.013 367.804, 804.623 351.424 L 805.298 333.274 797.481 324.915 C 787.130 313.846, 773.154 292.030, 759.739 266 C 758.018 262.661, 756.039 260.244, 754.702 259.850 C 752.485 259.195, 733.240 259.145, 714.250 259.746 M 437.544 266.072 C 431.411 267.595, 423.044 272.038, 418.943 275.949 C 415.335 279.391, 413.018 284.809, 413.006 289.829 C 413.001 291.935, 413.312 292.092, 416.250 291.459 C 418.038 291.074, 420.625 290.199, 422 289.515 C 432.288 284.397, 446.247 282.182, 456.209 284.086 C 462.890 285.363, 474.239 290.001, 477.167 292.651 C 478.151 293.541, 479.658 293.961, 480.588 293.604 C 482.996 292.681, 482.028 284.132, 479.089 280.357 C 476.190 276.635, 468.553 270.466, 463.500 267.767 C 458.915 265.317, 444.403 264.370, 437.544 266.072 M 227.200 273.453 C 216.353 276.079, 203.374 287.943, 196.144 301.841 C 192.564 308.721, 192.089 310.298, 193.054 312.100 C 193.680 313.271, 193.993 315.597, 193.747 317.267 C 193.498 318.966, 194.340 323.373, 195.658 327.270 C 203.495 350.434, 218.202 365.466, 242.179 374.819 C 255.792 380.129, 266.212 382, 282.169 382 C 302.197 382, 310.888 380.473, 336.747 372.409 C 346.233 369.450, 356.010 366.523, 358.473 365.903 C 365.721 364.077, 370.596 358.210, 366.250 356.542 C 365.288 356.173, 357.975 355.444, 350 354.922 C 342.025 354.399, 334.875 353.744, 334.112 353.464 C 333.348 353.185, 326.373 352.034, 318.612 350.906 C 310.850 349.778, 301.800 348.427, 298.500 347.904 C 295.200 347.381, 288.900 346.524, 284.500 346 C 266.569 343.865, 253.094 341.066, 247.811 338.379 C 242.281 335.567, 240.838 330.727, 243.100 322.579 C 244.770 316.565, 248.904 312.996, 254.173 313.020 C 261.150 313.053, 287.042 316.696, 307 320.453 C 327.167 324.249, 344.261 327.141, 361.775 329.719 C 372.375 331.279, 373.152 331.277, 374.758 329.671 C 376.056 328.372, 376.211 327.558, 375.403 326.277 C 374.282 324.499, 343.760 307.378, 331 301.368 C 326.875 299.426, 319.466 296.278, 314.536 294.374 C 309.607 292.470, 301.060 288.619, 295.543 285.817 C 283.668 279.783, 271.689 275.481, 261.146 273.463 C 251.912 271.696, 234.478 271.691, 227.200 273.453 M 638.500 273.077 C 623.767 275.421, 609.172 279.883, 598.137 285.417 C 594.487 287.248, 586.100 290.892, 579.500 293.514 C 566.127 298.828, 535.243 313.981, 526.301 319.614 C 519.233 324.068, 515.887 327.008, 516.590 328.145 C 517.997 330.422, 568.410 326.671, 585.500 323.017 C 587.700 322.547, 592.200 321.635, 595.500 320.990 C 598.800 320.345, 605.100 318.981, 609.500 317.960 C 623.458 314.719, 636.951 312.730, 641.155 313.294 C 652.690 314.841, 656.583 329.891, 647.509 337.858 C 643.780 341.132, 643.727 341.146, 625 343.533 C 618.125 344.409, 609.350 345.735, 605.500 346.478 C 595.027 348.501, 593.436 348.734, 568 351.970 C 555.075 353.615, 542.250 355.248, 539.500 355.600 C 533.486 356.369, 530 358.351, 530 361 C 530 362.075, 531.013 363.590, 532.250 364.367 C 533.487 365.144, 547.100 368.738, 562.500 372.354 C 599.726 381.095, 617.268 383.113, 634.545 380.642 C 666.862 376.020, 689.061 358.633, 697.662 331.207 C 702.321 316.350, 699.719 305.174, 687.996 289.689 C 681.961 281.716, 675.394 276.589, 668.539 274.497 C 662.265 272.582, 646.341 271.829, 638.500 273.077 M 435 314.168 C 421.700 318.929, 419.175 320.256, 414.767 324.800 C 412.259 327.385, 409.194 331.525, 407.955 334 C 404.440 341.028, 400 354.996, 400 359.031 C 400 367.772, 407.025 381.225, 416.848 391.294 C 424.037 398.663, 428.801 401.435, 438.805 404.069 C 446.490 406.093, 447.150 406.115, 454.440 404.608 C 469.642 401.464, 476.525 396.471, 484.562 382.759 C 490.375 372.841, 492.229 365.901, 491.838 355.518 C 491.553 347.938, 491.007 345.464, 488.413 340 C 478.340 318.783, 454.422 307.216, 435 314.168 M 363 397.659 C 336.102 407.158, 299.487 415.454, 294.495 413.180 C 291.910 412.002, 291.768 412.118, 288.587 418 C 287.546 419.925, 283.456 426.450, 279.497 432.500 C 275.539 438.550, 269.900 447.748, 266.967 452.940 C 264.033 458.132, 259.465 465.243, 256.816 468.743 C 254.167 472.243, 252 475.420, 252 475.803 C 252 476.186, 253.508 477.703, 255.351 479.174 C 257.215 480.661, 264.419 490.867, 271.587 502.174 C 278.673 513.353, 288.049 527.675, 292.422 534 C 296.794 540.325, 302.372 549.254, 304.817 553.843 L 309.262 562.185 313.381 561.607 C 315.646 561.289, 325.499 560.737, 335.275 560.379 C 345.051 560.022, 353.278 559.359, 353.558 558.906 C 353.838 558.453, 352.530 555.027, 350.653 551.291 C 345.694 541.428, 344.081 535.990, 342.452 523.638 C 340.737 510.633, 340.641 500.829, 342.069 484.548 C 343.234 471.264, 344.695 464.184, 347.960 456 C 353.104 443.106, 367.048 422.121, 377.522 411.511 C 384.796 404.141, 385.144 403.582, 384.523 400.271 C 383.433 394.459, 382.153 391.995, 380.275 392.092 C 379.299 392.143, 371.525 394.648, 363 397.659 M 513.633 396.979 C 512.185 399.167, 511 401.882, 511 403.013 C 511 404.144, 513.948 408.525, 517.552 412.748 C 526.022 422.675, 538.997 443.387, 542.876 453.173 C 549.420 469.681, 550.350 475.374, 550.357 499 C 550.366 528.743, 548.407 539.730, 540.859 552.261 C 538.723 555.808, 538.691 556.120, 540.302 557.731 C 541.794 559.222, 545.339 559.514, 568.255 560.028 C 586.101 560.428, 594.878 560.278, 595.680 559.558 C 596.329 558.976, 599.530 553.325, 602.793 547 C 609.507 533.984, 616.290 521.659, 623.978 508.500 C 626.870 503.550, 630.973 495.984, 633.095 491.686 C 635.218 487.388, 638.540 482.019, 640.477 479.756 C 642.415 477.492, 644 475.002, 644 474.222 C 644 473.443, 641.465 469.207, 638.367 464.811 C 635.268 460.414, 627.671 447.746, 621.484 436.659 C 615.298 425.571, 609.299 415.488, 608.154 414.250 C 606.421 412.378, 605.016 411.999, 599.786 411.994 C 585.336 411.981, 559.992 406.602, 534.166 398.067 C 525.732 395.280, 518.254 393, 517.549 393 C 516.843 393, 515.081 394.790, 513.633 396.979 M 406.500 443.096 C 399.350 443.468, 392.521 443.823, 391.325 443.886 C 389.600 443.976, 387.821 446.530, 382.713 456.250 C 376.056 468.916, 372.164 478.497, 373.239 479.572 C 373.578 479.912, 405.501 480.274, 444.178 480.376 C 482.855 480.479, 515.148 480.774, 515.941 481.031 C 516.750 481.295, 517.546 480.748, 517.758 479.783 C 518.195 477.789, 506.333 447.598, 504.043 444.876 C 502.600 443.161, 499.801 443.022, 461 442.731 C 438.175 442.559, 413.650 442.723, 406.500 443.096 M 754.788 486.545 C 754.489 486.845, 736.080 487.235, 713.881 487.412 L 673.518 487.734 670.670 492.117 C 666.910 497.902, 650.139 526.011, 643.294 538 C 637.151 548.760, 625.937 566.824, 621.599 572.948 C 618.268 577.651, 618.363 578.095, 624.927 588.500 C 630.412 597.197, 650.046 630.513, 662.559 652.358 L 673.360 671.215 677.430 670.633 C 689.628 668.890, 718.041 667.803, 738.826 668.286 L 762.153 668.828 764.826 664.273 C 769.209 656.807, 775.931 647.064, 783.298 637.500 C 787.111 632.550, 793.441 624.262, 797.365 619.082 L 804.500 609.663 804.793 580.975 L 805.085 552.287 800.844 546.922 C 796.920 541.957, 785.898 524.874, 768.797 497.250 C 762.237 486.654, 761.644 486, 758.583 486 C 756.796 486, 755.088 486.245, 754.788 486.545 M 136.532 491.577 C 135.710 493.545, 133.602 497.257, 131.847 499.827 C 130.092 502.397, 122.597 513.500, 115.193 524.500 C 107.788 535.500, 100.328 545.989, 98.615 547.809 L 95.500 551.117 95.492 573.309 C 95.487 585.514, 95.102 596.921, 94.635 598.657 C 93.878 601.476, 94.203 602.278, 97.677 606.157 C 103.344 612.484, 108.908 620.118, 116.513 632 C 120.210 637.775, 124.751 644.750, 126.605 647.500 C 128.459 650.250, 132.130 656.550, 134.763 661.500 C 138.480 668.489, 139.991 670.459, 141.525 670.317 C 169.301 667.738, 217.937 667.505, 224.289 669.920 C 225.770 670.483, 227.549 670.722, 228.241 670.450 C 228.934 670.179, 232.759 663.554, 236.742 655.729 C 240.725 647.903, 247.731 635.200, 252.309 627.500 C 256.888 619.800, 263.027 609.016, 265.952 603.535 C 268.877 598.055, 273.316 590.494, 275.817 586.733 C 280.256 580.056, 280.333 579.807, 279.059 576.197 C 278.341 574.164, 277.192 571.825, 276.505 571 C 275.819 570.175, 272.552 565, 269.246 559.500 C 265.941 554, 259.508 543.425, 254.951 536 C 239.984 511.614, 232.875 499.678, 229.814 493.796 L 226.797 488 182.412 488 L 138.027 488 136.532 491.577 M 373.717 514.649 C 373.183 515.513, 379.880 540.694, 382.106 546.193 C 383.414 549.426, 385.123 549.757, 395 548.690 C 405.406 547.567, 489.604 547.840, 500 549.031 C 510.325 550.214, 510.696 549.923, 514.387 537.692 C 518.905 522.718, 520 517.600, 518.916 516.516 C 518.256 515.857, 500.432 515.476, 468.199 515.431 C 440.865 515.392, 408.548 515, 396.385 514.558 C 383.479 514.089, 374.040 514.127, 373.717 514.649 M 406.750 583.093 C 405.238 583.683, 404 584.611, 404 585.154 C 404 587.284, 413.225 598.885, 420.664 606.109 C 429.472 614.662, 437.062 619.875, 444.611 622.556 L 449.722 624.371 455.111 621.722 C 470.896 613.964, 496.136 587.174, 490.779 583.864 C 490.083 583.433, 478.260 583.082, 464.506 583.083 C 450.753 583.084, 432.750 582.845, 424.500 582.552 C 414.906 582.211, 408.509 582.406, 406.750 583.093 M 521.633 596.558 C 514.969 610.590, 502.623 625.905, 489.747 636.112 C 480.629 643.340, 477.392 647.447, 473.868 656.259 C 469.001 668.431, 467.196 677.182, 466.407 692.423 C 466.063 699.065, 465.465 707.557, 465.078 711.292 C 464.278 719, 465.088 720.988, 471.472 727 C 474.737 730.075, 480.363 737.029, 499.268 761.363 C 501.891 764.738, 505.914 770.313, 508.208 773.750 C 510.503 777.188, 512.632 779.991, 512.940 779.980 C 513.248 779.970, 517.100 779.259, 521.500 778.400 C 527.417 777.246, 538.817 776.700, 565.290 776.302 L 601.080 775.763 602.923 772.131 C 603.936 770.134, 606.427 764.450, 608.457 759.500 C 610.488 754.550, 614.429 746.225, 617.214 741 C 635.778 706.180, 639.219 700.215, 643.685 695.110 L 648.198 689.951 646.425 687.226 C 645.450 685.726, 642.312 681.575, 639.453 678 C 636.055 673.752, 630.882 664.581, 624.524 651.529 C 619.173 640.546, 612.070 627.271, 608.739 622.029 C 597.943 605.042, 595.969 601.597, 594.977 598.020 C 593.224 591.702, 594.211 591.968, 568.908 590.986 C 556.034 590.487, 540.964 589.779, 535.420 589.414 L 525.341 588.750 521.633 596.558 M 355 591.990 C 348.125 592.339, 334.172 592.430, 323.993 592.192 L 305.486 591.758 303.671 595.629 C 300.020 603.419, 284.525 631.873, 276.513 645.500 C 271.985 653.200, 266.090 663.775, 263.411 669 C 260.732 674.225, 257.069 680.130, 255.270 682.121 C 253.472 684.113, 252 686.163, 252 686.677 C 252 687.191, 253.147 689.161, 254.549 691.056 C 255.951 692.950, 259.177 698.325, 261.719 703 C 266.732 712.221, 272.260 721.246, 282.485 736.902 C 286.097 742.433, 292.375 753.639, 296.436 761.806 L 303.820 776.655 335.796 776.196 C 365.059 775.775, 378.789 776.432, 386.201 778.605 C 387.396 778.955, 388.710 777.821, 390.611 774.802 C 402.527 755.869, 409.800 746.124, 425.459 728.106 L 434.492 717.712 434.227 709.118 C 433.884 697.969, 431.360 677.739, 429.596 672 C 427.678 665.759, 422.464 652.850, 419.496 646.993 C 417.250 642.561, 416.154 641.658, 407.759 637.328 C 391.691 629.039, 380.113 615.417, 374.540 598.240 C 373.001 593.499, 370.531 590.696, 368.316 591.177 C 367.867 591.275, 361.875 591.641, 355 591.990 M 183.571 699.763 C 182 701.333, 183.562 703.006, 189.250 705.844 C 192.759 707.595, 200.167 713.072, 206.142 718.333 C 217.778 728.579, 218.853 729.312, 233.500 737.003 C 239 739.891, 244.932 743.321, 246.683 744.627 C 250.478 747.455, 252.480 747.711, 251.560 745.250 C 250.112 741.378, 227.350 702.871, 225.500 701.165 C 224.413 700.163, 184.505 698.828, 183.571 699.763 M 675.181 701.219 C 674.531 701.869, 674 702.821, 674 703.335 C 674 703.849, 669.323 711.297, 663.607 719.885 C 652.984 735.847, 649.804 742.204, 651.564 743.964 C 652.544 744.944, 655.034 743.488, 672.201 731.895 C 686.022 722.561, 702.112 712.653, 709.253 709.078 C 722.650 702.372, 721.247 701.452, 696.431 700.670 C 681.603 700.203, 676.053 700.347, 675.181 701.219 M 443.192 759.166 C 441.461 761.899, 419.360 786.150, 404.758 801.337 L 400.017 806.269 384.561 805.550 C 367.943 804.778, 364.092 805.201, 366.070 807.584 C 366.716 808.363, 368.173 809, 369.307 809 C 373.134 809, 379.909 813.117, 386.662 819.546 C 391.051 823.724, 396.311 827.424, 401.839 830.220 C 407.577 833.123, 410.974 835.542, 412.399 837.738 C 413.555 839.518, 415.063 840.981, 415.750 840.988 C 416.438 840.994, 417 841.499, 417 842.110 C 417 843.473, 474.971 842.288, 476.450 840.895 C 476.972 840.403, 478.141 840, 479.046 840 C 482.030 840, 486.448 837.160, 489.825 833.070 C 491.654 830.855, 496.989 826.725, 501.680 823.891 C 510.379 818.637, 522.522 809.189, 521.671 808.338 C 521.412 808.079, 517.403 807.731, 512.763 807.565 C 497.964 807.035, 490.718 803.398, 482.008 792.126 C 461.964 766.186, 452.081 756, 446.959 756 C 445.989 756, 444.294 757.425, 443.192 759.166" stroke="none" fill="#fb9735" fill-rule="evenodd"/></svg>